<svg id="Layer_1" data-name="Layer 1" xmlns="http://www.w3.org/2000/svg" viewBox="0 0 1096.28 885.59"><defs><style>.cls-1{fill:none;stroke:#a23b47;stroke-miterlimit:10;stroke-width:24.25px;}</style></defs><path class="cls-1" d="M976.38,750.74c16.22-21.53,37.77-38.92,62.86-48.8,25.69-10.11,62-34.4,78.83-92.42,27.57-95,180.72-49,180.72-49s66,36.9,87.06,83.15c10.92,24,32.59,41.27,57.32,50.37,18.39,6.77,38.91,13.64,57.24,18.86,89.59,25.55,142.92,109.9,81.33,179.8-1.84,2.08-3.75,4.19-5.73,6.3l-12.84,11.41a51.81,51.81,0,0,1-34.44,13.1H1054.29a103.12,103.12,0,0,1-57.64-17.57c-27.16-18.27-62.57-48.53-57.78-79.69C942.48,802.78,963.81,767.42,976.38,750.74Z" transform="translate(-562.44 -50.02)"/><path class="cls-1" d="M887.69,350.68H698.37a74.19,74.19,0,0,1-17.12-2l-8.08-1.92C643.79,332,552.47,277.1,648.39,202.9A84.53,84.53,0,0,1,686,186.39c31.22-5.26,100.77-24.6,162.18-95.36a35.58,35.58,0,0,1,6.57-5.93c17.27-12,86.59-53.73,127.66,18.19.26.45.5.91.74,1.36,3.59,6.87,41.21,75.84,117.68,101.27.94.31,1.86.66,2.77,1.05,7,3.05,41.63,17.44,68.87,16.65.88,0,1.75-.1,2.62-.19,12.69-1.35,126-10.8,184.54,74.79,41.51,60.73,64.5,107,75.17,131a36.78,36.78,0,0,0,26.88,21.22c49.18,9.18,175.66,44.2,184,162.47,6.9,98.19-27.65,128-51.36,137a36.33,36.33,0,0,1-32.36-3.49l-15.84-10.08-18.8-12.68a36.93,36.93,0,0,0-8.67-4.31L1493,710.72l-31.33-10.13c-.63-.2-1.26-.42-1.87-.66l-24.37-9.36a36.74,36.74,0,0,1-6.68-3.38l-13.61-8.75a36.31,36.31,0,0,1-7.72-6.65l-14.17-16.12a36.92,36.92,0,0,1-4.6-6.57l-8.87-16.17a36.5,36.5,0,0,0-3.08-4.73l-9.86-12.82a38.27,38.27,0,0,0-3.21-3.65l-14.49-14.4a35.81,35.81,0,0,0-3.13-2.77l-23.87-18.86c-.8-.62-1.62-1.22-2.46-1.78l-11-7.33a38.17,38.17,0,0,0-5.08-2.82l-7-3.2a36.47,36.47,0,0,0-7.61-2.5l-18.83-4a36.36,36.36,0,0,0-4.41-.66l-43.82-3.78a37.27,37.27,0,0,0-5.49-.07l-17,1.08a36.18,36.18,0,0,0-5.19.71l-16.94,3.54a37,37,0,0,0-7.4,2.4l-14.54,6.47a36.58,36.58,0,0,0-8.4,5.2l-7.5,6.17a36.71,36.71,0,0,0-7.75,8.83l-8.37,13.36a36.45,36.45,0,0,0-3.6,7.5l-6.31,18.28a35.86,35.86,0,0,1-2,4.69L1100.62,649a37.18,37.18,0,0,1-4.39,6.7l-12.43,15a36.65,36.65,0,0,1-12.07,9.55l-13,6.4a38,38,0,0,0-3.73,2.11l-32.6,21.11c-.7.45-1.38.93-2,1.43l-23,17.21a36.25,36.25,0,0,0-6.36,6.08l-20.47,24.92a36.44,36.44,0,0,0-3.59,5.23l-17.31,30.64c-.49.86-.94,1.75-1.36,2.65h0A36.68,36.68,0,0,1,915,819.34H729.49a36.65,36.65,0,0,1-16.07-3.7C673.29,796,499.53,698.6,611.75,531.9a37.92,37.92,0,0,1,5.64-6.62c16.34-15.08,93.15-80.65,189.77-76.58,43.19,1.82,77.14-13.16,102.4-31.92C937.92,395.72,923,350.68,887.69,350.68Z" transform="translate(-562.44 -50.02)"/><path class="cls-1" d="M926.67,378.88s133.12-147,212.42-159.77" transform="translate(-562.44 -50.02)"/></svg>