<svg id="Layer_1" data-name="Layer 1" xmlns="http://www.w3.org/2000/svg" viewBox="0 0 757.14 758.81"><defs><style>.cls-1{fill:none;stroke:#a23b47;stroke-miterlimit:10;stroke-width:17.62px;}</style></defs><path class="cls-1" d="M865.2,441.18c-53.84,13.32-105.51,45.68-155.8,90.14C664,570,636,617.8,618.5,671.14c-7,21.34,2.37,44.69,21.69,56.15l200.53,119c21.54,15.05,45.35,16.85,72.34,0l194.42-111.63c23.53-13.51,34-42.51,23.56-67.55C1102.73,599.4,1051.45,553.94,991,497.94c-15-13.91-17.7-12.44-42.35-27-9.68-5.71-18.29-13.1-28.55-17.69l-2.48-1.1a125.88,125.88,0,0,0-51.46-11Z" transform="translate(-607.38 -108.24)"/><path class="cls-1" d="M846.56,453.42s-36.72,49.25,15.86,74.29V745.55c21.41,57,37.65,43.18,51.75,0l-5-217s50.6-42.95.68-79.48C909.84,449.06,867.43,429.22,846.56,453.42Z" transform="translate(-607.38 -108.24)"/><polygon class="cls-1" points="430.32 20.5 430.32 356.86 537.16 245.85 748.33 242.52 748.33 35.52 719.11 8.81 453.69 8.81 430.32 20.5"/><polygon class="cls-1" points="703.26 137.46 703.26 118.09 680.97 114.44 678.41 99.09 694.12 85.93 684.62 69.12 665.98 75.7 654.65 65.83 657.58 42.08 643.33 30.75 633.09 47.56 618.08 47.56 614.78 46.52 606.05 24.54 599.44 24.54 587.78 24.54 581.17 24.54 572.44 46.52 569.14 47.56 554.13 47.56 543.89 30.75 529.64 42.08 532.56 65.83 521.24 75.7 502.6 69.12 493.1 85.93 508.81 99.09 506.25 114.44 483.96 118.09 483.96 137.46 505.52 146.23 506.98 163.04 493.46 169.62 493.46 184.96 522.7 186.79 532.38 196.47 530.37 221.51 540.97 227.35 558.88 212 574.95 216.03 579.38 233.12 579.38 239.05 586.68 239.05 593.61 238.42 600.53 239.05 607.84 239.05 607.84 233.12 612.26 216.03 628.34 212 646.25 227.35 656.85 221.51 654.84 196.47 664.52 186.79 693.76 184.96 693.76 169.62 680.24 163.04 681.7 146.23 703.26 137.46"/><polygon class="cls-1" points="654.04 134.91 654.04 124.24 641.75 122.23 640.34 113.77 649 106.52 643.77 97.25 633.5 100.88 627.25 95.44 628.86 82.35 621.01 76.11 615.37 85.37 607.09 85.37 605.27 84.8 600.47 72.69 596.82 72.69 590.4 72.69 586.75 72.69 581.94 84.8 580.13 85.37 571.85 85.37 566.21 76.11 558.36 82.35 559.97 95.44 553.72 100.88 543.45 97.25 538.22 106.52 546.88 113.77 545.47 122.23 533.18 124.24 533.18 134.91 545.06 139.75 545.87 149.01 538.42 152.64 538.42 161.1 554.53 162.1 559.87 167.44 558.76 181.24 564.6 184.46 574.47 176 583.33 178.21 585.76 187.64 585.76 190.9 589.79 190.9 593.61 190.56 597.43 190.9 601.45 190.9 601.45 187.64 603.89 178.21 612.75 176 622.62 184.46 628.46 181.24 627.35 167.44 632.69 162.1 648.8 161.1 648.8 152.64 641.35 149.01 642.15 139.75 654.04 134.91"/><circle class="cls-1" cx="275.59" cy="198.97" r="133.96"/></svg>