<svg id="Layer_1" data-name="Layer 1" xmlns="http://www.w3.org/2000/svg" viewBox="0 0 517.75 529.15"><defs><style>.cls-1{fill:none;stroke:#a23b47;stroke-miterlimit:10;stroke-width:24.22px;}</style></defs><path class="cls-1" d="M637.25,225.18l28.36-8.91,13-42.14h40.52l20.26,51.05h39.7l22.69-37.27L833.34,213l-6.48,52.67L852,287.58,893.31,273l21.07,37.27-34.85,29.18,5.67,34,49.43,8.1v42.95L886.82,444l-3.24,37.27,30,14.59v34l-64.83,4-21.47,21.48,4.45,55.5-23.5,13-39.7-34-35.66,8.92-12.15,47-44.57,4h-16.2V503.93H777.43V339.44H642.11s-71.31-.81-30.79-55.11C611.32,284.33,640.49,274.61,637.25,225.18Z" transform="translate(-428.99 -156.45)"/><path class="cls-1" d="M620.23,250.33v-33.6a45.38,45.38,0,0,0-14.49-33.38A62.25,62.25,0,0,0,587.46,171l-.47-.14c-23.51-7-49.27,2.44-61.55,23.68a140.29,140.29,0,0,0-6.5,12.82c-9.76,22.37-13.92,43.34-6.9,66.87a31.16,31.16,0,0,0,5.77,10.39c8.71,10.84,27.38,39.11-3.73,50.77-38.9,14.59-64,8.92-68.88,80.23s-4.05,113.44-4.05,113.44c7.48,15.14,18.73,22.05,33.22,21.88v79.41l185.57-3.24V496.64l-21.07.81-3.78-158.54s-66.73,7.56-20.79-67.27A40.8,40.8,0,0,0,620.23,250.33Z" transform="translate(-428.99 -156.45)"/><polyline class="cls-1" points="60.78 266.45 60.78 339.38 217.97 340.69"/><line class="cls-1" x1="207.29" y1="232.48" x2="348.44" y2="232.48"/><line class="cls-1" x1="230.95" y1="392.86" x2="45.38" y2="394.48"/><line class="cls-1" x1="45.38" y1="455.63" x2="45.38" y2="529.15"/><line class="cls-1" x1="230.95" y1="466.25" x2="230.95" y2="529.15"/></svg>